<svg id="canvas" width="674.070" height="225.691" viewBox="283.608 215.621 674.070 225.691" preserveAspectRatio="xMidYMid meet" class="h-full w-full max-w-4xl text-primary transition-opacity duration-300 opacity-100" xmlns="http://www.w3.org/2000/svg"><g id="canvas-strokes"><path d="M 353.34,220.61 C 352.03 221.57, 351.50 222.98, 350.14 226.58 C 348.79 230.18, 348.48 232.65, 346.59 238.61 C 344.70 244.56, 343.49 248.39, 340.70 256.34 C 337.91 264.28, 336.22 268.88, 332.65 278.35 C 329.08 287.82, 326.89 293.17, 322.85 303.69 C 318.81 314.21, 316.47 320.10, 312.44 330.93 C 308.41 341.76, 306.24 347.68, 302.69 357.84 C 299.15 368.00, 297.46 373.30, 294.74 381.74 C 292.01 390.18, 290.67 394.20, 289.07 400.03 C 287.46 405.85, 286.28 408.43, 286.69 410.87 C 287.10 413.30, 289.20 413.20, 291.11 412.21 C 293.01 411.21, 294.93 408.89, 296.21 405.89 C 297.49 402.88, 298.61 399.30, 297.51 397.18 C 296.42 395.06, 292.76 394.07, 290.74 395.28 C 288.71 396.48, 287.94 400.12, 287.37 403.20 C 286.81 406.28, 287.24 409.04, 287.90 410.68 C 288.55 412.31, 289.67 413.31, 290.64 411.37 C 291.60 409.43, 291.36 406.73, 292.72 400.97 C 294.09 395.21, 294.98 391.03, 297.44 382.57 C 299.90 374.10, 301.59 368.81, 305.03 358.65 C 308.48 348.49, 310.65 342.58, 314.68 331.77 C 318.71 320.96, 321.06 315.08, 325.19 304.60 C 329.32 294.13, 331.56 288.79, 335.33 279.39 C 339.11 269.99, 340.94 265.45, 344.08 257.60 C 347.21 249.76, 348.71 246.01, 351.01 240.18 C 353.30 234.34, 354.43 232.11, 355.56 228.42 C 356.70 224.74, 357.12 223.31, 356.68 221.75 C 356.23 220.18, 354.65 219.64, 353.34 220.61" style="stroke: black; fill: black;"/><path d="M 357.33,219.46 C 356.35 220.43, 355.67 221.17, 355.68 223.95 C 355.70 226.72, 356.64 228.39, 357.39 233.34 C 358.15 238.30, 358.67 241.59, 359.45 248.71 C 360.22 255.84, 360.58 260.18, 361.27 268.97 C 361.96 277.76, 362.26 282.79, 362.89 292.65 C 363.52 302.52, 363.79 307.98, 364.42 318.29 C 365.06 328.61, 365.38 334.19, 366.07 344.21 C 366.75 354.22, 367.16 359.44, 367.85 368.36 C 368.54 377.29, 368.97 381.66, 369.52 388.81 C 370.08 395.97, 370.19 399.55, 370.63 404.14 C 371.08 408.73, 371.08 410.08, 371.75 411.76 C 372.42 413.44, 373.46 412.81, 373.97 412.55 C 374.48 412.29, 374.72 410.73, 374.30 410.47 C 373.88 410.21, 372.03 410.73, 371.87 411.26 C 371.71 411.79, 372.64 413.11, 373.48 413.13 C 374.33 413.15, 375.76 413.28, 376.11 411.38 C 376.45 409.47, 375.86 408.18, 375.22 403.60 C 374.59 399.02, 373.82 395.56, 372.91 388.47 C 372.01 381.37, 371.54 377.01, 370.70 368.12 C 369.86 359.23, 369.45 354.02, 368.72 344.02 C 368.00 334.02, 367.68 328.44, 367.08 318.14 C 366.49 307.83, 366.25 302.36, 365.76 292.49 C 365.27 282.61, 365.03 277.58, 364.63 268.76 C 364.23 259.94, 364.05 255.58, 363.78 248.40 C 363.51 241.21, 363.40 237.87, 363.28 232.83 C 363.15 227.78, 363.70 225.94, 363.15 223.19 C 362.61 220.45, 361.72 219.84, 360.56 219.10 C 359.39 218.35, 358.30 218.49, 357.33 219.46" style="stroke: black; fill: black;"/><path d="M 310.84,332.28 C 311.65 333.33, 312.41 334.03, 314.65 334.23 C 316.90 334.43, 318.39 334.04, 322.07 333.27 C 325.75 332.51, 328.13 331.69, 333.06 330.41 C 337.98 329.14, 341.02 328.36, 346.68 326.91 C 352.35 325.46, 355.60 324.61, 361.39 323.16 C 367.18 321.72, 370.29 320.87, 375.64 319.68 C 380.99 318.48, 383.81 317.86, 388.13 317.17 C 392.45 316.48, 394.59 316.30, 397.24 316.23 C 399.88 316.17, 400.33 315.87, 401.34 316.85 C 402.36 317.82, 402.10 318.35, 402.31 321.11 C 402.51 323.87, 402.68 325.93, 402.36 330.63 C 402.05 335.34, 401.54 338.62, 400.73 344.64 C 399.93 350.67, 399.25 354.42, 398.33 360.77 C 397.40 367.12, 396.79 370.73, 396.12 376.39 C 395.45 382.05, 394.71 384.95, 394.98 389.08 C 395.24 393.22, 395.62 395.21, 397.46 397.07 C 399.31 398.93, 401.57 399.56, 404.20 398.40 C 406.84 397.24, 407.94 395.31, 410.64 391.26 C 413.35 387.20, 414.54 384.05, 417.71 378.13 C 420.89 372.21, 422.76 368.27, 426.51 361.67 C 430.25 355.07, 432.48 351.17, 436.45 345.12 C 440.42 339.07, 442.66 335.86, 446.35 331.41 C 450.04 326.96, 452.22 325.20, 454.90 322.88 C 457.57 320.57, 458.54 320.09, 459.70 319.83 C 460.87 319.57, 460.25 319.75, 460.70 321.60 C 461.16 323.45, 461.65 324.96, 462.00 329.08 C 462.34 333.20, 462.47 336.32, 462.44 342.18 C 462.41 348.04, 462.13 351.80, 461.84 358.40 C 461.56 365.00, 461.17 368.83, 461.02 375.19 C 460.86 381.56, 460.66 384.89, 461.08 390.24 C 461.50 395.59, 461.61 398.15, 463.10 401.95 C 464.59 405.76, 466.04 407.40, 468.54 409.27 C 471.03 411.14, 473.17 411.32, 475.57 411.29 C 477.96 411.26, 479.64 410.23, 480.50 409.11 C 481.37 407.99, 480.78 406.49, 479.89 405.68 C 479.00 404.88, 477.56 405.42, 476.06 405.08 C 474.57 404.73, 473.94 405.04, 472.41 403.97 C 470.87 402.90, 469.70 402.56, 468.39 399.72 C 467.09 396.88, 466.47 394.65, 465.87 389.77 C 465.28 384.88, 465.33 381.51, 465.43 375.28 C 465.54 369.06, 465.93 365.24, 466.40 358.66 C 466.86 352.07, 467.37 348.37, 467.76 342.37 C 468.14 336.36, 468.61 333.31, 468.31 328.61 C 468.01 323.91, 468.02 321.55, 466.24 318.86 C 464.46 316.18, 462.35 315.18, 459.41 315.18 C 456.46 315.19, 454.79 316.17, 451.52 318.89 C 448.24 321.60, 446.67 323.94, 443.01 328.76 C 439.35 333.59, 437.20 336.83, 433.20 343.00 C 429.20 349.18, 426.95 353.08, 422.99 359.61 C 419.04 366.15, 416.92 370.02, 413.44 375.67 C 409.96 381.32, 408.06 384.20, 405.59 387.87 C 403.11 391.53, 401.99 392.62, 401.06 394.00 C 400.14 395.38, 401.01 395.80, 400.96 394.77 C 400.91 393.75, 400.80 392.46, 400.80 388.88 C 400.80 385.30, 400.54 382.35, 400.96 376.87 C 401.39 371.38, 401.96 367.74, 402.92 361.45 C 403.87 355.16, 404.67 351.47, 405.75 345.43 C 406.83 339.38, 407.65 336.27, 408.31 331.23 C 408.97 326.19, 409.68 323.96, 409.06 320.24 C 408.43 316.53, 407.52 314.72, 405.17 312.64 C 402.83 310.56, 400.95 310.00, 397.34 309.84 C 393.72 309.67, 391.65 310.79, 387.09 311.82 C 382.53 312.86, 379.89 313.65, 374.52 315.00 C 369.16 316.35, 366.07 317.21, 360.27 318.59 C 354.47 319.97, 351.23 320.77, 345.54 321.91 C 339.86 323.05, 336.81 323.61, 331.85 324.28 C 326.88 324.95, 324.36 324.82, 320.73 325.28 C 317.10 325.74, 315.71 325.83, 313.69 326.57 C 311.66 327.31, 311.20 327.83, 310.63 328.97 C 310.06 330.11, 310.04 331.23, 310.84 332.28" style="stroke: black; fill: black;"/><path d="M 622.59,237.23 C 621.59 238.46, 621.45 239.79, 621.07 243.58 C 620.70 247.36, 620.97 249.86, 620.71 256.15 C 620.46 262.44, 620.35 266.61, 619.78 275.04 C 619.20 283.48, 618.78 288.48, 617.85 298.32 C 616.92 308.17, 616.30 313.75, 615.12 324.28 C 613.94 334.80, 613.23 340.63, 611.94 350.95 C 610.64 361.28, 609.89 366.75, 608.64 375.89 C 607.38 385.03, 606.66 389.62, 605.66 396.64 C 604.66 403.66, 604.12 406.57, 603.64 410.98 C 603.16 415.39, 602.86 417.07, 603.27 418.67 C 603.67 420.27, 604.86 420.44, 605.68 419.00 C 606.50 417.55, 606.69 415.85, 607.35 411.46 C 608.01 407.08, 608.17 404.11, 608.99 397.07 C 609.80 390.02, 610.32 385.41, 611.42 376.25 C 612.53 367.09, 613.26 361.61, 614.52 351.27 C 615.79 340.94, 616.50 335.11, 617.76 324.58 C 619.01 314.05, 619.66 308.48, 620.79 298.63 C 621.92 288.79, 622.49 283.79, 623.41 275.36 C 624.34 266.94, 624.73 262.78, 625.41 256.50 C 626.09 250.22, 626.68 247.77, 626.81 243.95 C 626.94 240.14, 626.89 238.78, 626.04 237.43 C 625.20 236.09, 623.58 236.00, 622.59 237.23" style="stroke: black; fill: black;"/><path d="M 614.44,238.65 C 615.68 238.99, 616.32 238.30, 617.81 237.84 C 619.30 237.38, 619.76 237.10, 621.88 236.35 C 623.99 235.59, 625.03 234.34, 628.39 234.06 C 631.74 233.78, 634.11 233.83, 638.66 234.95 C 643.21 236.07, 646.05 236.99, 651.15 239.66 C 656.26 242.32, 659.21 244.06, 664.18 248.29 C 669.15 252.51, 671.85 255.11, 676.02 260.77 C 680.19 266.44, 682.29 269.74, 685.03 276.61 C 687.77 283.49, 688.89 287.29, 689.72 295.16 C 690.55 303.02, 690.50 307.32, 689.16 315.93 C 687.83 324.54, 686.51 329.22, 683.04 338.19 C 679.57 347.16, 677.10 351.92, 671.81 360.78 C 666.52 369.64, 663.10 374.25, 656.58 382.47 C 650.06 390.70, 646.18 394.89, 639.19 401.90 C 632.21 408.91, 628.31 412.28, 621.64 417.54 C 614.97 422.79, 611.44 425.07, 605.82 428.17 C 600.21 431.26, 597.29 432.09, 593.57 433.01 C 589.85 433.94, 588.61 433.78, 587.21 432.77 C 585.81 431.77, 586.42 430.48, 586.56 427.97 C 586.71 425.45, 587.50 423.33, 587.96 420.20 C 588.41 417.07, 589.53 414.19, 588.84 412.34 C 588.14 410.48, 586.17 409.66, 584.46 410.91 C 582.75 412.16, 581.23 415.02, 580.28 418.59 C 579.33 422.15, 578.87 425.03, 579.71 428.73 C 580.56 432.44, 581.52 435.42, 584.50 437.13 C 587.49 438.85, 590.04 438.50, 594.66 437.31 C 599.27 436.12, 601.82 434.70, 607.58 431.20 C 613.34 427.70, 616.77 425.30, 623.47 419.81 C 630.16 414.32, 634.04 410.90, 641.07 403.75 C 648.09 396.60, 651.98 392.38, 658.57 384.06 C 665.17 375.73, 668.63 371.09, 674.04 362.12 C 679.45 353.14, 681.99 348.34, 685.60 339.19 C 689.21 330.05, 690.62 325.26, 692.07 316.39 C 693.53 307.52, 693.65 303.05, 692.88 294.84 C 692.11 286.64, 690.99 282.62, 688.22 275.37 C 685.45 268.12, 683.31 264.63, 679.04 258.60 C 674.78 252.56, 672.01 249.81, 666.90 245.19 C 661.78 240.57, 658.79 238.65, 653.48 235.50 C 648.17 232.35, 645.33 231.20, 640.34 229.42 C 635.36 227.63, 632.87 227.05, 628.56 226.59 C 624.25 226.13, 621.93 226.14, 618.81 227.13 C 615.69 228.12, 614.39 229.73, 612.95 231.53 C 611.50 233.34, 611.28 234.72, 611.58 236.15 C 611.87 237.57, 613.19 238.31, 614.44 238.65" style="stroke: black; fill: black;"/><path d="M 734.09,326.81 C 733.56 325.58, 732.79 324.93, 730.93 324.33 C 729.07 323.73, 727.62 323.18, 724.79 323.82 C 721.96 324.47, 720.05 325.27, 716.77 327.55 C 713.49 329.84, 711.77 331.45, 708.39 335.23 C 705.01 339.01, 703.08 341.29, 699.84 346.45 C 696.60 351.61, 694.78 354.82, 692.19 361.03 C 689.60 367.24, 688.33 371.01, 686.89 377.50 C 685.46 384.00, 684.91 387.62, 685.01 393.51 C 685.11 399.39, 685.50 402.41, 687.41 406.91 C 689.31 411.41, 690.92 413.64, 694.52 416.01 C 698.12 418.37, 700.82 419.00, 705.43 418.72 C 710.03 418.43, 712.79 417.40, 717.57 414.59 C 722.34 411.78, 724.89 409.54, 729.29 404.66 C 733.70 399.78, 736.00 396.54, 739.58 390.20 C 743.16 383.86, 744.87 379.96, 747.20 372.96 C 749.53 365.97, 750.38 361.95, 751.22 355.21 C 752.07 348.47, 752.05 344.97, 751.43 339.27 C 750.80 333.58, 749.96 330.97, 748.10 326.75 C 746.25 322.53, 744.88 320.67, 742.15 318.20 C 739.42 315.72, 737.41 314.86, 734.47 314.37 C 731.53 313.89, 729.49 314.36, 727.46 315.79 C 725.42 317.22, 724.36 319.02, 724.29 321.54 C 724.23 324.05, 724.81 326.36, 727.14 328.36 C 729.46 330.36, 731.69 330.81, 735.92 331.53 C 740.15 332.25, 742.80 332.11, 748.28 331.98 C 753.77 331.85, 757.03 331.58, 763.35 330.88 C 769.68 330.19, 773.30 329.55, 779.89 328.49 C 786.48 327.43, 790.11 326.67, 796.31 325.57 C 802.52 324.47, 805.79 323.76, 810.92 322.99 C 816.05 322.22, 818.65 322.25, 821.97 321.70 C 825.30 321.15, 826.54 320.83, 827.56 320.23 C 828.59 319.63, 828.21 318.60, 827.08 318.71 C 825.95 318.81, 824.61 318.81, 821.92 320.76 C 819.22 322.72, 817.53 324.71, 813.60 328.48 C 809.68 332.26, 807.04 334.62, 802.29 339.65 C 797.55 344.67, 794.62 347.71, 789.87 353.62 C 785.13 359.52, 782.49 363.03, 778.57 369.18 C 774.64 375.34, 772.78 378.76, 770.24 384.40 C 767.70 390.04, 766.67 392.78, 765.88 397.39 C 765.08 402.01, 764.85 404.37, 766.27 407.47 C 767.70 410.57, 769.77 412.20, 773.01 412.89 C 776.25 413.59, 778.61 412.98, 782.48 410.95 C 786.34 408.92, 788.28 406.96, 792.34 402.76 C 796.40 398.55, 798.61 395.70, 802.77 389.93 C 806.93 384.16, 809.20 380.55, 813.13 373.91 C 817.06 367.27, 819.07 363.32, 822.43 356.74 C 825.78 350.17, 827.41 346.54, 829.90 341.02 C 832.39 335.49, 834.11 332.71, 834.88 329.14 C 835.65 325.56, 835.00 323.88, 833.75 323.14 C 832.49 322.41, 830.23 322.82, 828.60 325.47 C 826.97 328.12, 826.80 331.01, 825.61 336.39 C 824.41 341.77, 823.61 345.65, 822.61 352.35 C 821.61 359.06, 821.09 363.18, 820.60 369.92 C 820.12 376.67, 819.90 380.26, 820.18 386.06 C 820.45 391.86, 820.59 394.64, 821.97 398.93 C 823.35 403.23, 824.25 405.44, 827.07 407.55 C 829.89 409.67, 832.45 410.30, 836.06 409.52 C 839.67 408.73, 841.51 407.12, 845.11 403.64 C 848.70 400.16, 850.41 397.59, 854.02 392.12 C 857.63 386.65, 859.53 383.03, 863.16 376.28 C 866.79 369.53, 868.72 365.37, 872.16 358.38 C 875.60 351.39, 877.39 347.38, 880.36 341.33 C 883.32 335.29, 885.28 332.08, 886.99 328.16 C 888.71 324.23, 889.20 322.67, 888.94 321.71 C 888.68 320.74, 886.74 320.92, 885.69 323.32 C 884.63 325.72, 884.72 328.41, 883.66 333.71 C 882.60 339.00, 881.76 343.04, 880.38 349.80 C 879.00 356.56, 878.10 360.85, 876.74 367.52 C 875.38 374.19, 874.54 377.75, 873.59 383.15 C 872.65 388.56, 871.55 391.09, 872.01 394.55 C 872.47 398.02, 873.69 399.60, 875.88 400.48 C 878.07 401.36, 880.16 401.24, 882.95 398.94 C 885.74 396.64, 886.68 393.93, 889.84 388.97 C 893.00 384.01, 894.82 380.48, 898.76 374.15 C 902.69 367.81, 905.06 363.79, 909.51 357.31 C 913.97 350.83, 916.59 347.16, 921.02 341.76 C 925.44 336.36, 927.93 333.70, 931.65 330.32 C 935.36 326.94, 937.44 326.14, 939.61 324.86 C 941.77 323.58, 941.79 323.18, 942.46 323.94 C 943.14 324.70, 942.87 325.46, 942.99 328.65 C 943.11 331.83, 943.36 334.43, 943.06 339.89 C 942.77 345.34, 942.34 349.10, 941.52 355.93 C 940.70 362.76, 939.91 366.91, 938.96 374.03 C 938.01 381.16, 937.21 385.17, 936.77 391.56 C 936.32 397.96, 935.90 401.25, 936.74 406.01 C 937.58 410.77, 938.64 412.84, 940.96 415.38 C 943.28 417.92, 945.71 418.39, 948.34 418.69 C 950.97 418.99, 953.05 417.91, 954.11 416.86 C 955.17 415.81, 954.59 414.20, 953.64 413.42 C 952.70 412.63, 950.99 413.40, 949.36 412.94 C 947.73 412.48, 947.04 412.70, 945.49 411.12 C 943.94 409.53, 942.48 408.90, 941.59 405.04 C 940.70 401.18, 940.75 397.90, 941.04 391.81 C 941.33 385.73, 942.04 381.64, 943.04 374.59 C 944.03 367.54, 944.91 363.40, 946.01 356.56 C 947.11 349.71, 947.87 346.07, 948.52 340.35 C 949.18 334.63, 949.95 331.94, 949.28 327.95 C 948.61 323.97, 947.58 322.04, 945.17 320.43 C 942.76 318.81, 940.56 318.53, 937.23 319.87 C 933.91 321.20, 932.38 323.19, 928.54 327.09 C 924.70 330.99, 922.45 333.74, 918.02 339.35 C 913.60 344.96, 910.99 348.66, 906.40 355.14 C 901.82 361.62, 899.32 365.61, 895.10 371.76 C 890.89 377.91, 888.71 381.34, 885.35 385.89 C 881.99 390.44, 879.98 392.11, 878.30 394.49 C 876.61 396.87, 877.03 397.81, 876.94 397.79 C 876.85 397.77, 877.57 397.17, 877.85 394.39 C 878.14 391.61, 877.72 389.06, 878.36 383.87 C 879.01 378.68, 879.70 375.01, 881.08 368.42 C 882.45 361.82, 883.60 357.59, 885.25 350.90 C 886.90 344.20, 888.04 340.30, 889.31 334.94 C 890.57 329.58, 891.93 327.07, 891.58 324.10 C 891.23 321.12, 889.36 319.71, 887.55 320.07 C 885.73 320.44, 884.66 322.02, 882.49 325.92 C 880.32 329.83, 879.42 333.45, 876.68 339.62 C 873.95 345.78, 872.22 349.79, 868.81 356.74 C 865.41 363.69, 863.41 367.81, 859.68 374.35 C 855.94 380.89, 853.84 384.40, 850.16 389.43 C 846.47 394.46, 844.36 396.69, 841.23 399.48 C 838.10 402.28, 836.60 402.72, 834.50 403.39 C 832.40 404.06, 832.22 404.07, 830.71 402.84 C 829.21 401.62, 828.17 400.67, 826.98 397.26 C 825.78 393.85, 825.13 391.19, 824.73 385.79 C 824.33 380.39, 824.42 376.79, 824.98 370.27 C 825.54 363.75, 826.24 359.69, 827.52 353.20 C 828.81 346.72, 829.95 342.97, 831.41 337.86 C 832.87 332.74, 834.50 330.53, 834.81 327.64 C 835.12 324.75, 833.98 323.44, 832.95 323.40 C 831.92 323.36, 831.06 324.26, 829.65 327.45 C 828.24 330.64, 828.01 333.82, 825.88 339.34 C 823.76 344.86, 822.25 348.53, 819.04 355.05 C 815.83 361.57, 813.80 365.48, 809.86 371.94 C 805.91 378.40, 803.56 381.93, 799.33 387.34 C 795.09 392.75, 792.63 395.38, 788.66 398.98 C 784.70 402.58, 782.44 403.73, 779.48 405.35 C 776.53 406.97, 775.45 407.10, 773.88 407.08 C 772.30 407.06, 772.21 407.04, 771.60 405.26 C 771.00 403.47, 770.35 401.99, 770.85 398.15 C 771.34 394.31, 771.90 391.43, 774.09 386.05 C 776.28 380.67, 778.04 377.22, 781.81 371.23 C 785.57 365.24, 788.17 361.78, 792.91 356.10 C 797.64 350.43, 800.58 347.47, 805.50 342.86 C 810.42 338.25, 813.22 336.27, 817.50 333.05 C 821.77 329.82, 824.25 329.18, 826.86 326.75 C 829.48 324.31, 830.27 323.02, 830.55 320.89 C 830.82 318.76, 830.13 317.19, 828.24 316.11 C 826.36 315.03, 824.76 315.07, 821.11 315.49 C 817.46 315.91, 815.13 317.04, 810.02 318.21 C 804.90 319.37, 801.68 320.12, 795.52 321.33 C 789.37 322.54, 785.75 323.28, 779.23 324.25 C 772.72 325.22, 769.10 325.78, 762.94 326.17 C 756.78 326.56, 753.51 326.62, 748.44 326.21 C 743.36 325.80, 740.89 325.07, 737.56 324.12 C 734.23 323.17, 733.36 322.08, 731.77 321.45 C 730.18 320.82, 729.95 321.04, 729.62 320.99 C 729.29 320.94, 729.44 321.10, 730.14 321.18 C 730.83 321.26, 731.52 320.98, 733.08 321.39 C 734.64 321.80, 735.88 321.71, 737.95 323.23 C 740.02 324.76, 741.61 325.71, 743.43 329.03 C 745.26 332.35, 746.31 334.69, 747.09 339.84 C 747.86 344.98, 748.02 348.37, 747.32 354.75 C 746.61 361.13, 745.82 365.06, 743.58 371.75 C 741.34 378.44, 739.62 382.23, 736.11 388.20 C 732.60 394.17, 730.23 397.22, 726.02 401.62 C 721.81 406.02, 719.24 407.87, 715.05 410.20 C 710.86 412.53, 708.58 413.02, 705.06 413.28 C 701.54 413.54, 700.06 413.16, 697.43 411.50 C 694.81 409.84, 693.52 408.58, 691.94 404.96 C 690.35 401.34, 689.66 398.70, 689.49 393.39 C 689.31 388.09, 689.71 384.55, 691.06 378.43 C 692.41 372.30, 693.66 368.62, 696.24 362.77 C 698.82 356.93, 700.68 353.85, 703.97 349.20 C 707.26 344.55, 709.31 342.46, 712.67 339.54 C 716.04 336.62, 717.91 335.81, 720.78 334.59 C 723.65 333.37, 725.00 333.91, 727.02 333.42 C 729.05 332.94, 729.59 332.76, 730.90 332.17 C 732.22 331.58, 732.95 331.55, 733.59 330.48 C 734.23 329.41, 734.62 328.04, 734.09 326.81" style="stroke: black; fill: black;"/></g></svg>