<?xml version="1.0" standalone="no"?>
<!DOCTYPE svg PUBLIC "-//W3C//DTD SVG 20010904//EN"
 "http://www.w3.org/TR/2001/REC-SVG-20010904/DTD/svg10.dtd">
<svg version="1.0" xmlns="http://www.w3.org/2000/svg"
 width="301.000000pt" height="301.000000pt" viewBox="0 0 301.000000 301.000000"
 preserveAspectRatio="xMidYMid meet">
<metadata>
Created by potrace 1.14, written by Peter Selinger 2001-2017
</metadata>
<g transform="translate(0.000000,301.000000) scale(0.100000,-0.100000)"
fill="#000000" stroke="none">
<path d="M1250 2465 l0 -35 -65 0 -65 0 0 -30 0 -30 -65 0 -65 0 0 -35 c0 -33
-2 -35 -35 -35 -32 0 -35 -2 -35 -30 0 -27 -3 -30 -30 -30 l-30 0 0 -70 0 -70
-35 0 -35 0 0 -335 0 -335 -30 0 -30 0 0 -200 0 -200 30 0 c27 0 30 -3 30 -30
0 -28 3 -30 35 -30 l35 0 0 -105 0 -105 30 0 30 0 0 -65 0 -65 35 0 c32 0 35
-2 35 -30 0 -27 3 -30 30 -30 l30 0 0 -70 0 -70 65 0 65 0 0 -35 0 -35 70 0
70 0 0 -30 0 -30 260 0 260 0 0 30 0 30 65 0 65 0 0 35 0 35 65 0 65 0 0 70 0
70 35 0 c32 0 35 2 35 30 0 27 3 30 30 30 l30 0 0 135 0 135 35 0 35 0 0 65 0
65 30 0 30 0 0 200 0 200 -30 0 -30 0 0 335 0 335 -35 0 -35 0 0 70 0 70 -30
0 c-27 0 -30 3 -30 30 0 28 -3 30 -35 30 -33 0 -35 2 -35 35 l0 35 -65 0 -65
0 0 30 0 30 -65 0 -65 0 0 35 0 35 -295 0 -295 0 0 -35z"/>
</g>
</svg>
